HIERARCHY
ROOT joint_Root
{
	OFFSET 0.0 0.0 0.0
	CHANNELS 6 Xposition Yposition Zposition Zrotation Xrotation Yrotation 
	JOINT Hips
	{
		OFFSET -17.1583 93.1646 452.98
		CHANNELS 6 Xposition Yposition Zposition Zrotation Xrotation Yrotation 
		JOINT Spine
		{
			OFFSET 15.7357 0.0 0.0
			CHANNELS 6 Xposition Yposition Zposition Zrotation Xrotation Yrotation 
			JOINT Chest
			{
				OFFSET 8.98455 -0.406207 0.0
				CHANNELS 6 Xposition Yposition Zposition Zrotation Xrotation Yrotation 
				JOINT Neck
				{
					OFFSET 16.3773 0.0 0.0
					CHANNELS 6 Xposition Yposition Zposition Zrotation Xrotation Yrotation 
					JOINT Head
					{
						OFFSET 6.45672 0.0 0.0
						CHANNELS 6 Xposition Yposition Zposition Zrotation Xrotation Yrotation 
						End Site
						{
							OFFSET 0.0 0.0 0.0
						}
					}
				}
				JOINT Shoulder_L
				{
					OFFSET 12.9942 -0.242716 4.98039
					CHANNELS 6 Xposition Yposition Zposition Zrotation Xrotation Yrotation 
					JOINT UpperArm_L
					{
						OFFSET 5.34809 0.0 0.0
						CHANNELS 6 Xposition Yposition Zposition Zrotation Xrotation Yrotation 
						JOINT LowerArm_L
						{
							OFFSET 24.3286 1.87007e-05 0.0
							CHANNELS 6 Xposition Yposition Zposition Zrotation Xrotation Yrotation 
							JOINT Hand_L
							{
								OFFSET 22.2916 0.0 0.0
								CHANNELS 6 Xposition Yposition Zposition Zrotation Xrotation Yrotation 
								End Site
								{
									OFFSET 0.0 0.0 0.0
								}
							}
						}
					}
				}
				JOINT Shoulder_R
				{
					OFFSET 12.9945 -0.242716 -4.98039
					CHANNELS 6 Xposition Yposition Zposition Zrotation Xrotation Yrotation 
					JOINT UpperArm_R
					{
						OFFSET -5.34813 0.0 0.0
						CHANNELS 6 Xposition Yposition Zposition Zrotation Xrotation Yrotation 
						JOINT LowerArm_R
						{
							OFFSET -24.3289 0.000322201 0.0
							CHANNELS 6 Xposition Yposition Zposition Zrotation Xrotation Yrotation 
							JOINT Hand_R
							{
								OFFSET -22.2915 -0.000108084 0.0
								CHANNELS 6 Xposition Yposition Zposition Zrotation Xrotation Yrotation 
								End Site
								{
									OFFSET 0.0 0.0 0.0
								}
							}
						}
					}
				}
			}
		}
		JOINT UpperLeg_L
		{
			OFFSET -2.19248 -6.46944 0.0
			CHANNELS 6 Xposition Yposition Zposition Zrotation Xrotation Yrotation 
			JOINT LowerLeg_L
			{
				OFFSET 39.0811 0.0 -1.23785e-05
				CHANNELS 6 Xposition Yposition Zposition Zrotation Xrotation Yrotation 
				JOINT Foot_L
				{
					OFFSET 40.9854 0.0 -1.26872e-05
					CHANNELS 6 Xposition Yposition Zposition Zrotation Xrotation Yrotation 
					JOINT Toes_L
					{
						OFFSET 11.7543 0.0 0.0
						CHANNELS 6 Xposition Yposition Zposition Zrotation Xrotation Yrotation 
						End Site
						{
							OFFSET 0.0 0.0 0.0
						}
					}
				}
			}
		}
		JOINT UpperLeg_R
		{
			OFFSET -2.19251 6.46944 0.0
			CHANNELS 6 Xposition Yposition Zposition Zrotation Xrotation Yrotation 
			JOINT LowerLeg_R
			{
				OFFSET -39.0811 -0.00228153 -0.0401928
				CHANNELS 6 Xposition Yposition Zposition Zrotation Xrotation Yrotation 
				JOINT Foot_R
				{
					OFFSET -40.9854 0.0 0.0
					CHANNELS 6 Xposition Yposition Zposition Zrotation Xrotation Yrotation 
					JOINT Toes_R
					{
						OFFSET -11.7543 0.0 0.0
						CHANNELS 6 Xposition Yposition Zposition Zrotation Xrotation Yrotation 
						End Site
						{
							OFFSET 0.0 0.0 0.0
						}
					}
				}
			}
		}
	}
}
MOTION
Frames:	9
Frame Time:	0.0333333
0.000000 0.000000 0.000000 0.000000 0.000000 -0.000000 -0.231674 90.227200 516.699000 -85.920600 -4.842970 173.707000 15.735700 0.000005 -0.000001 21.116600 85.988300 -17.828500 8.984550 -0.406207 -0.000000 -4.664440 -7.833880 6.269560 16.377300 -0.000001 -0.000001 0.684940 4.709510 -2.116260 6.456720 -0.000001 -0.000000 8.066300 8.777050 -4.098580 12.994200 -0.242716 4.980390 -91.996200 6.459540 -72.786200 5.348090 -0.000007 -0.000001 -68.576200 0.272821 -20.527900 24.328600 0.000019 0.000005 17.803300 8.805000 -64.512900 22.291600 -0.000001 0.000005 15.179000 4.997560 7.370030 12.994500 -0.242716 -4.980390 90.413600 -1.185090 -70.757800 -5.348130 -0.000001 -0.000004 -49.065100 -9.685340 21.786600 -24.328900 0.000322 -0.000009 0.367749 15.335500 -1.394560 -22.291500 -0.000108 -0.000004 11.868600 5.087640 5.395580 -2.192480 -6.469440 -0.000000 -170.281000 -6.815800 11.741400 39.081100 -0.000007 -0.000012 -0.001098 0.004688 13.176600 40.985400 -0.000006 -0.000013 -3.038390 23.020300 -60.485000 11.754300 -0.000000 0.000003 -0.058636 -0.327329 -30.090000 -2.192510 6.469440 -0.000001 -175.514000 1.218800 146.402000 -39.081100 -0.002282 -0.040193 0.038724 -0.069268 27.080200 -40.985400 0.000008 0.000006 -8.777080 -4.151640 -68.341600 -11.754300 -0.000006 -0.000006 0.001009 0.148476 -10.551900
0.000000 0.000000 0.000000 0.000000 0.000000 -0.000000 0.272177 89.466500 512.728000 -85.569200 -5.545830 173.396000 15.735700 0.000005 -0.000001 17.584800 86.132200 -14.005600 8.984550 -0.406207 -0.000000 -5.201170 -7.770120 6.820270 16.377300 -0.000001 -0.000001 0.373842 4.353920 -2.316080 6.456720 -0.000001 -0.000000 7.432950 8.217020 -5.228310 12.994200 -0.242716 4.980390 -92.316900 7.481690 -72.738900 5.348090 -0.000007 -0.000001 -71.194800 3.994180 -17.543200 24.328600 0.000019 0.000005 15.882300 10.086800 -58.382500 22.291600 -0.000001 0.000005 16.527500 4.994840 7.428650 12.994500 -0.242716 -4.980390 90.265300 -0.752269 -70.572900 -5.348130 -0.000001 -0.000004 -49.522900 -9.929820 22.452300 -24.328900 0.000322 -0.000009 0.598706 14.308000 -2.426290 -22.291500 -0.000108 -0.000004 14.593500 5.101350 5.087100 -2.192480 -6.469440 -0.000000 -169.111000 -6.614500 11.974700 39.081100 -0.000007 -0.000012 0.002342 -0.008220 15.903200 40.985400 -0.000006 -0.000013 -2.113820 23.102800 -58.908000 11.754300 -0.000000 0.000003 -0.104336 -0.455200 -35.597300 -2.192510 6.469440 -0.000001 -173.266000 2.377420 145.041000 -39.081100 -0.002282 -0.040193 0.152451 -0.246411 31.186500 -40.985400 0.000008 0.000006 -2.312250 -6.832370 -66.996200 -11.754300 -0.000006 -0.000006 0.001677 0.131708 -11.232200
0.000000 0.000000 0.000000 0.000000 0.000000 -0.000000 0.821702 88.640300 508.278000 -85.066900 -6.437460 173.201000 15.735700 0.000005 -0.000001 11.567100 86.374900 -7.626590 8.984550 -0.406207 -0.000000 -6.068210 -7.566780 7.498750 16.377300 -0.000001 -0.000001 0.112583 3.973800 -2.582200 6.456720 -0.000001 -0.000000 7.321460 7.503940 -6.758470 12.994200 -0.242716 4.980390 -92.747300 8.770120 -72.530000 5.348090 -0.000007 -0.000001 -72.950900 8.002950 -14.127700 24.328600 0.000019 0.000005 13.749300 12.061300 -49.521200 22.291600 -0.000001 0.000005 11.272500 5.048800 6.217700 12.994500 -0.242716 -4.980390 89.998000 0.005274 -70.262700 -5.348130 -0.000001 -0.000004 -49.713800 -11.145500 22.930100 -24.328900 0.000322 -0.000009 0.656331 11.741100 -3.227680 -22.291500 -0.000108 -0.000004 15.947500 5.115770 4.748840 -2.192480 -6.469440 -0.000000 -167.996000 -5.141490 11.808400 39.081100 -0.000007 -0.000012 0.013610 -0.039067 19.207700 40.985400 -0.000006 -0.000013 -2.284820 22.069800 -55.307600 11.754300 -0.000000 0.000003 -0.184600 -0.618902 -42.994300 -2.192510 6.469440 -0.000001 -171.805000 2.872760 144.278000 -39.081100 -0.002282 -0.040193 0.278759 -0.372671 36.471500 -40.985400 0.000008 0.000006 1.304940 -7.826200 -66.261900 -11.754300 -0.000006 -0.000006 0.000066 0.166550 -9.818200
0.000000 0.000000 0.000000 0.000000 0.000000 -0.000000 1.355280 87.896200 503.593000 -84.365100 -6.874800 173.721000 15.735700 0.000005 -0.000001 9.906400 86.617700 -5.561620 8.984550 -0.406207 -0.000000 -6.341720 -7.186280 8.312340 16.377300 -0.000001 -0.000001 -0.465257 3.817470 -2.791100 6.456720 -0.000001 -0.000000 7.566830 6.917690 -8.625220 12.994200 -0.242716 4.980390 -93.240200 10.440300 -72.649900 5.348090 -0.000007 -0.000001 -73.791300 10.146800 -10.733800 24.328600 0.000019 0.000005 15.286800 19.437300 -39.431800 22.291600 -0.000001 0.000005 -0.562231 5.190350 2.770360 12.994500 -0.242716 -4.980390 89.555700 1.226640 -70.085200 -5.348130 -0.000001 -0.000004 -50.071800 -13.190200 21.631200 -24.328900 0.000322 -0.000009 0.422673 8.725100 -2.787830 -22.291500 -0.000108 -0.000004 15.089400 5.114980 4.770090 -2.192480 -6.469440 -0.000000 -167.307000 -2.603050 11.065900 39.081100 -0.000007 -0.000012 0.033326 -0.073698 24.332100 40.985400 -0.000006 -0.000013 -2.764170 20.550400 -49.736000 11.754300 -0.000000 0.000003 -0.263192 -0.741023 -48.885100 -2.192510 6.469440 -0.000001 -170.839000 2.932820 145.108000 -39.081100 -0.002282 -0.040193 0.274078 -0.303393 41.752000 -40.985400 0.000008 0.000006 -0.555589 -7.773830 -70.787700 -11.754300 -0.000006 -0.000006 -0.003364 0.212327 -7.957160
0.000000 0.000000 0.000000 0.000000 0.000000 -0.000000 1.874250 87.426200 499.026000 -83.370000 -7.012110 174.925000 15.735700 0.000005 -0.000001 14.979900 86.667500 -10.170400 8.984550 -0.406207 -0.000000 -5.753860 -6.995950 9.287890 16.377300 -0.000001 -0.000001 -1.204880 3.884570 -3.162280 6.456720 -0.000001 -0.000000 7.689040 6.680950 -9.895090 12.994200 -0.242716 4.980390 -93.614900 11.963000 -73.049500 5.348090 -0.000007 -0.000001 -73.430800 12.532300 -6.915050 24.328600 0.000019 0.000005 15.752900 29.974900 -29.471600 22.291600 -0.000001 0.000005 -11.557100 5.317550 -0.484518 12.994500 -0.242716 -4.980390 89.121700 2.436560 -70.171000 -5.348130 -0.000001 -0.000004 -52.591500 -13.711900 17.425200 -24.328900 0.000322 -0.000009 0.128167 5.644550 -1.309760 -22.291500 -0.000108 -0.000004 13.878100 5.081570 5.536260 -2.192480 -6.469440 -0.000000 -166.366000 -0.789463 8.595520 39.081100 -0.000007 -0.000012 0.058632 -0.091538 32.639700 40.985400 -0.000006 -0.000013 -2.600590 19.770700 -42.163800 11.754300 -0.000000 0.000003 -0.224352 -0.684112 -46.091100 -2.192510 6.469440 -0.000001 -169.000000 4.951540 148.258000 -39.081100 -0.002282 -0.040193 0.385401 -0.391810 44.284300 -40.985400 0.000008 0.000006 0.603143 -6.209080 -75.157300 -11.754300 -0.000006 -0.000006 -0.004441 0.223618 -7.497350
0.000000 0.000000 0.000000 0.000000 0.000000 -0.000000 2.308150 87.339500 494.985000 -82.406100 -6.585690 176.133000 15.735700 0.000005 -0.000001 22.338800 86.831500 -17.152400 8.984550 -0.406207 -0.000000 -5.061210 -6.434480 10.106200 16.377300 -0.000001 -0.000001 -1.611360 3.856420 -3.219330 6.456720 -0.000001 -0.000000 7.797940 6.351830 -10.548400 12.994200 -0.242716 4.980390 -93.813600 12.570000 -72.970900 5.348090 -0.000007 -0.000001 -73.677400 14.156800 -1.699590 24.328600 0.000019 0.000005 12.472000 38.392600 -19.615700 22.291600 -0.000001 0.000005 -17.118500 5.312150 -0.249244 12.994500 -0.242716 -4.980390 88.773300 3.391160 -70.099400 -5.348130 -0.000001 -0.000004 -56.798800 -12.116000 11.554200 -24.328900 0.000322 -0.000009 0.055111 4.766980 -0.675975 -22.291500 -0.000108 -0.000004 11.220800 5.039440 6.473500 -2.192480 -6.469440 -0.000000 -165.340000 0.306903 3.594860 39.081100 -0.000007 -0.000012 0.114803 -0.122690 43.097500 40.985400 -0.000006 -0.000013 -6.549320 18.882100 -31.913400 11.754300 -0.000000 0.000003 -0.039792 -0.259292 -27.227500 -2.192510 6.469440 -0.000001 -167.752000 6.320540 152.374000 -39.081100 -0.002282 -0.040193 0.406029 -0.410564 44.451200 -40.985400 0.000008 0.000006 0.692378 -4.602940 -77.972000 -11.754300 -0.000006 -0.000006 -0.004328 0.222481 -7.543660
0.000000 0.000000 0.000000 0.000000 0.000000 -0.000000 2.509890 87.673100 491.664000 -82.355400 -5.518770 176.600000 15.735700 0.000005 -0.000001 29.344100 87.151600 -24.259000 8.984550 -0.406207 -0.000000 -4.720130 -5.514280 9.956890 16.377300 -0.000001 -0.000001 -1.824830 3.821180 -2.618160 6.456720 -0.000001 -0.000000 8.066790 5.965300 -10.363600 12.994200 -0.242716 4.980390 -93.869500 12.165200 -72.204400 5.348090 -0.000007 -0.000001 -73.349500 7.905650 4.095710 24.328600 0.000019 0.000005 7.573010 44.985100 -10.654800 22.291600 -0.000001 0.000005 -16.415700 5.177050 3.220260 12.994500 -0.242716 -4.980390 88.587500 3.912920 -70.132800 -5.348130 -0.000001 -0.000004 -62.208800 -6.719140 5.415010 -24.328900 0.000322 -0.000009 0.188174 4.319170 -2.513700 -22.291500 -0.000108 -0.000004 6.517720 5.060450 5.983580 -2.192480 -6.469440 -0.000000 -165.414000 0.575452 -3.401000 39.081100 -0.000007 -0.000012 0.245377 -0.186672 52.737400 40.985400 -0.000006 -0.000013 -11.580700 13.474200 -22.117700 11.754300 -0.000000 0.000003 -0.000063 -0.001052 -16.620200 -2.192510 6.469440 -0.000001 -167.833000 6.198470 156.298000 -39.081100 -0.002282 -0.040193 0.336796 -0.359255 42.873500 -40.985400 0.000008 0.000006 0.058346 -3.672020 -79.371000 -11.754300 -0.000006 -0.000006 -0.004276 0.221951 -7.565260
0.000000 0.000000 0.000000 0.000000 0.000000 -0.000000 2.518450 88.576400 488.441000 -83.011000 -3.816600 176.875000 15.735700 0.000005 -0.000001 41.829300 87.642600 -37.287600 8.984550 -0.406207 -0.000000 -4.452520 -3.993750 8.936900 16.377300 -0.000001 -0.000001 -1.593540 3.574050 -1.879600 6.456720 -0.000001 -0.000000 8.155890 5.376380 -9.264530 12.994200 -0.242716 4.980390 -93.791000 11.265500 -71.263200 5.348090 -0.000007 -0.000001 -70.008200 0.745944 10.192800 24.328600 0.000019 0.000005 4.869100 47.017900 -6.641660 22.291600 -0.000001 0.000005 -12.315900 4.974570 7.820250 12.994500 -0.242716 -4.980390 88.556100 4.062570 -70.415400 -5.348130 -0.000001 -0.000004 -66.925400 1.174810 0.770506 -24.328900 0.000322 -0.000009 0.555571 3.773530 -8.402900 -22.291500 -0.000108 -0.000004 1.580230 5.137830 4.199890 -2.192480 -6.469440 -0.000000 -166.512000 0.125942 -9.655600 39.081100 -0.000007 -0.000012 0.334816 -0.186417 60.891700 40.985400 -0.000006 -0.000013 -12.166900 11.062600 -27.145400 11.754300 -0.000000 0.000003 -0.000053 -0.000894 -16.613800 -2.192510 6.469440 -0.000001 -168.909000 4.744230 161.292000 -39.081100 -0.002282 -0.040193 0.194982 -0.238452 38.797200 -40.985400 0.000008 0.000006 -1.098690 -3.211030 -79.209700 -11.754300 -0.000006 -0.000006 -0.003807 0.217087 -7.763350
0.000000 0.000000 0.000000 0.000000 0.000000 -0.000000 2.252530 89.730400 485.291000 -84.602500 -1.997930 177.170000 15.735700 0.000005 -0.000001 64.307100 88.035000 -60.728100 8.984550 -0.406207 -0.000000 -4.151010 -2.074440 7.087390 16.377300 -0.000001 -0.000001 -1.173430 3.114570 -1.209300 6.456720 -0.000001 -0.000000 8.297940 4.535010 -7.945540 12.994200 -0.242716 4.980390 -93.595000 10.068400 -70.231800 5.348090 -0.000007 -0.000001 -64.760900 -3.766860 15.545200 24.328600 0.000019 0.000005 4.505080 45.830900 -6.269560 22.291600 -0.000001 0.000005 -9.407250 4.905900 9.259290 12.994500 -0.242716 -4.980390 88.676300 3.778720 -70.678300 -5.348130 -0.000001 -0.000004 -69.817800 9.380160 -2.376030 -24.328900 0.000322 -0.000009 1.351730 4.067690 -18.386600 -22.291500 -0.000108 -0.000004 -0.245658 5.223480 2.125430 -2.192480 -6.469440 -0.000000 -168.983000 -0.402710 -14.918600 39.081100 -0.000007 -0.000012 0.329017 -0.152403 65.145600 40.985400 -0.000006 -0.000013 -10.942600 10.627300 -33.288900 11.754300 -0.000000 0.000003 0.000238 0.004109 -16.410600 -2.192510 6.469440 -0.000001 -171.243000 2.727780 166.883000 -39.081100 -0.002282 -0.040193 0.025008 -0.033066 33.290500 -40.985400 0.000008 0.000006 -3.593430 -2.760960 -78.060800 -11.754300 -0.000006 -0.000006 -0.003671 0.215647 -7.822020
